<svg width="48" height="48" viewBox="0 0 48 48" fill="#fff" xmlns="http://www.w3.org/2000/svg">
<path d="M48 24C48 27.1517 47.3792 30.2726 46.1731 33.1844C44.967 36.0962 43.1992 38.742 40.9706 40.9706C38.742 43.1992 36.0962 44.967 33.1844 46.1731C30.2726 47.3792 27.1517 48 24 48C20.8483 48 17.7274 47.3792 14.8156 46.1731C11.9038 44.967 9.25804 43.1992 7.02944 40.9706C4.80083 38.742 3.033 36.0962 1.82689 33.1844C0.620778 30.2726 -2.75532e-07 27.1517 0 24H8.4C8.4 26.0486 8.80351 28.0772 9.58748 29.9699C10.3715 31.8625 11.5205 33.5823 12.9691 35.0309C14.4177 36.4795 16.1375 37.6285 18.0301 38.4125C19.9228 39.1965 21.9514 39.6 24 39.6C26.0486 39.6 28.0772 39.1965 29.9699 38.4125C31.8625 37.6285 33.5823 36.4795 35.0309 35.0309C36.4795 33.5823 37.6285 31.8625 38.4125 29.9699C39.1965 28.0772 39.6 26.0486 39.6 24H48Z" fill="#D9D9D9"/>
<circle cx="24" cy="15" r="9" fill="#D9D9D9"/>
</svg>
